<svg width="242" height="61" viewBox="0 0 242 61" fill="none" xmlns="http://www.w3.org/2000/svg">
<path d="M15.6392 12.7496C15.4081 12.8513 15.2531 12.9843 15.177 13.1485C15.0981 13.3206 15.0558 13.7117 15.0783 14.1079C15.1234 14.9031 15.2784 15.255 16.1324 16.5012C16.3212 16.7776 16.4734 17.0148 16.4677 17.0278C16.4621 17.0383 16.3268 17.1295 16.1634 17.2286C14.5795 18.1958 13.641 19.4655 13.2887 21.1262C13.2521 21.3008 13.1563 21.4181 12.6434 21.9343C12.2854 22.2967 11.905 22.7478 11.7556 22.9928C11.5104 23.3969 11.2117 24.1347 11.1412 24.5101C11.1215 24.6118 11.099 24.6926 11.0877 24.6926C11.0539 24.6926 9.72366 23.3682 9.71521 23.3265C9.70957 23.3057 9.85894 22.6513 10.0449 21.8718C10.4677 20.1042 10.6678 19.1917 10.6678 19.017C10.6678 18.9414 10.6424 18.8163 10.6086 18.7355C10.5438 18.5712 10.462 18.5008 9.72366 17.9586C9.19947 17.5701 7.82698 16.6159 7.53107 16.4308C7.25206 16.2588 7.15342 16.2197 6.98151 16.2197C6.67996 16.2197 6.39249 16.3891 6.26004 16.6446C6.10503 16.9444 6.14449 17.2208 6.3784 17.4502C6.53622 17.6066 7.09987 18.0446 7.83544 18.579C8.28072 18.9023 8.64709 19.1839 8.86128 19.3638C8.90637 19.4003 8.90073 19.4185 8.44136 21.3582C8.10035 22.7869 7.93407 23.5273 7.93407 23.6185C7.93407 23.7984 8.20181 24.1191 9.13183 25.0602C9.49538 25.4278 9.85048 25.7954 9.92376 25.8736L10.0506 26.0196L9.68703 26.7053C9.34038 27.357 9.1121 27.8263 8.97683 28.1731L8.91764 28.3321L8.38499 28.3295H7.85516L7.73398 28.4077C7.59307 28.4989 7.34506 28.817 6.33331 30.1909C5.93594 30.7306 5.49065 31.3354 5.34129 31.5362L5.07355 31.9012L4.3549 32.0784C2.10876 32.6285 1.03782 32.9179 0.818 33.0326C0.665815 33.1135 0.51363 33.2907 0.465719 33.4472C0.364263 33.7887 0.54463 34.1771 0.874365 34.3283C1.02091 34.3935 1.0491 34.3961 1.29147 34.3831C1.59302 34.3675 2.3624 34.1928 4.20835 33.7261C5.64848 33.3637 5.89085 33.2907 6.03739 33.1943C6.24594 33.0535 6.51931 32.7198 7.34224 31.6014C8.01862 30.6785 8.33145 30.2665 8.34554 30.2796C8.35399 30.2848 8.33427 30.4204 8.30327 30.5794C8.17644 31.2285 8.14544 31.6926 8.14544 33.0483C8.14544 34.3753 8.16235 34.6725 8.27508 35.2904C8.45545 36.2758 8.81619 37.4542 9.23329 38.4241C9.3432 38.6743 9.42211 38.8855 9.41365 38.8985C9.40802 38.9116 9.19947 39.0654 8.9571 39.2427C8.36245 39.6728 7.95098 40.0039 7.88053 40.1082C7.78471 40.2542 7.67761 40.8304 7.45497 42.4207C7.2887 43.6173 7.14778 44.5246 7.11678 44.595C7.08578 44.6732 6.66868 45.1529 6.10221 45.7656C5.51602 46.4017 5.04819 46.944 4.95519 47.1004C4.88755 47.2099 4.87628 47.262 4.87628 47.4263C4.87628 47.5957 4.88755 47.6426 4.96082 47.7626C5.09046 47.9816 5.37511 48.1458 5.6682 48.1745C5.98103 48.2058 6.1614 48.0702 7.06042 47.1264C7.91153 46.2296 8.61891 45.4214 8.73728 45.2129C8.76546 45.1607 8.8021 44.9913 8.82464 44.8088C8.9261 43.998 9.35729 41.0233 9.38547 40.9347C9.4052 40.8747 10.2422 40.2959 10.2704 40.3246C10.2817 40.3376 10.4339 40.5436 10.6086 40.7835C11.1525 41.5343 11.5865 42.0192 12.277 42.6423C13.4719 43.719 14.8219 44.509 16.417 45.059C17.0793 45.2885 18.029 45.5022 18.7139 45.5778C19.1197 45.6248 20.7148 45.6248 21.1376 45.5805C24.3616 45.2389 27.411 43.4218 29.3668 40.6792C29.5021 40.4915 29.6205 40.335 29.6289 40.335C29.6487 40.335 30.3335 40.7965 30.4406 40.8799C30.4913 40.9216 30.5139 41.0259 30.6153 41.7064C30.7534 42.6293 30.9958 44.3291 31.0522 44.8009C31.1001 45.1816 31.117 45.2129 31.4439 45.6039C31.9371 46.1957 33.0644 47.408 33.535 47.8512C33.7971 48.0989 33.9409 48.1693 34.2001 48.1667C34.5101 48.1641 34.792 47.9946 34.9357 47.7183C35.0343 47.5332 35.0315 47.2464 34.9272 47.0873C34.823 46.9257 34.4594 46.506 33.8197 45.8099C33.1377 45.0695 32.7938 44.6758 32.7628 44.6002C32.7346 44.5272 32.5796 43.5339 32.4106 42.3164C32.202 40.8278 32.0977 40.2594 31.9963 40.1082C31.9258 40.0013 31.4326 39.6181 30.869 39.2322C30.4631 38.9533 30.4265 38.9246 30.4491 38.8699C30.4631 38.836 30.5449 38.6509 30.6351 38.4579C31.1001 37.436 31.5059 36.0099 31.6609 34.8602C31.8384 33.541 31.8046 31.8151 31.5763 30.5872C31.5482 30.423 31.5284 30.2848 31.5341 30.2796C31.5482 30.2665 31.8272 30.6315 32.3965 31.4058C33.4336 32.8162 33.7041 33.1421 33.924 33.2464C34.0564 33.309 34.6877 33.4811 36.0461 33.82C37.7032 34.2371 38.2922 34.3648 38.5966 34.3831C38.8531 34.3961 38.87 34.3935 39.0193 34.3205C39.5774 34.0468 39.5774 33.2725 39.0165 33.0066C38.8108 32.9101 37.5679 32.579 35.5247 32.0784L34.8061 31.9012L33.9606 30.7515C32.3401 28.5459 32.2274 28.4077 32.0104 28.3399C31.9399 28.3191 31.7624 28.3138 31.4383 28.3217L30.9676 28.3347L30.8887 28.1366C30.7534 27.7924 30.3983 27.0703 30.108 26.5384L29.8234 26.0222L29.9333 25.8997C30.0545 25.7641 30.1954 25.6181 30.7337 25.0837C31.6609 24.1634 31.9427 23.8219 31.9455 23.6237C31.9455 23.5351 31.7285 22.5627 31.4016 21.1861C31.2523 20.5682 31.1001 19.9139 31.0578 19.7288L30.9817 19.3951L31.1029 19.2934C31.2776 19.15 31.9145 18.6703 32.5796 18.1802C33.5829 17.4424 33.7098 17.3068 33.7041 16.9627C33.7013 16.6889 33.5463 16.4543 33.2701 16.3031C33.1602 16.2431 33.1123 16.2327 32.9178 16.2327C32.7093 16.2327 32.6783 16.2405 32.5261 16.3239C32.0216 16.6081 29.8234 18.1671 29.4458 18.5113C29.2823 18.6599 29.2118 18.8137 29.2118 19.0249C29.2118 19.2047 29.3612 19.8904 29.8065 21.7466C30.0066 22.5861 30.17 23.29 30.17 23.3083C30.17 23.3291 30.1165 23.3995 30.0517 23.4647C29.7248 23.7958 28.8032 24.6926 28.7891 24.6926C28.7806 24.6926 28.7581 24.6092 28.7384 24.5075C28.6538 24.0487 28.2367 23.1153 27.9521 22.7425C27.7633 22.4923 27.4025 22.0908 27.0615 21.7545C26.6416 21.3347 26.6303 21.3165 26.5514 20.9332C26.2527 19.4915 25.2494 18.1828 23.7163 17.2312C23.5528 17.1295 23.4175 17.0383 23.4119 17.0278C23.4091 17.02 23.5387 16.8115 23.705 16.569C24.6237 15.2211 24.7562 14.9265 24.8013 14.0949C24.8379 13.4353 24.7506 13.0599 24.5223 12.8982C24.1362 12.6271 23.6937 12.6401 23.4006 12.9295C23.2005 13.1277 23.1498 13.2815 23.1244 13.8081C23.0962 14.3321 23.0737 14.4364 22.9131 14.7467C22.7496 15.0595 21.9577 16.217 21.7914 16.3813L21.7209 16.4517L21.5575 16.4126C20.9741 16.2796 21.053 16.2848 19.9398 16.2848C18.8266 16.2848 18.9055 16.2796 18.3221 16.4126L18.1559 16.4517L18.0769 16.3735C17.9529 16.2509 17.1526 15.0856 16.9919 14.7936C16.8087 14.4625 16.7862 14.3608 16.7552 13.8081C16.7383 13.4614 16.7214 13.3336 16.6763 13.2241C16.5664 12.9634 16.4367 12.8383 16.169 12.7366C15.9576 12.6558 15.8477 12.6584 15.6392 12.7496ZM20.3935 17.81C21.9182 17.9534 23.2287 18.5947 24.0967 19.6219C24.2602 19.8174 24.4772 20.1224 24.4772 20.1615C24.4772 20.1694 24.3673 20.1381 24.232 20.0885C23.3978 19.7861 22.3748 19.5489 21.2926 19.4107C20.8529 19.356 19.5283 19.3325 19.0352 19.3716C17.9389 19.4602 16.7749 19.7001 15.8195 20.0338C15.5969 20.112 15.4109 20.172 15.4052 20.1668C15.3883 20.1537 15.5884 19.8565 15.735 19.674C16.1859 19.1161 16.727 18.7016 17.4316 18.3731C18.1051 18.0576 18.7364 17.8804 19.4748 17.7995C19.6636 17.7813 20.1202 17.7865 20.3935 17.81ZM20.9938 20.9776C21.5518 21.0219 21.9013 21.0714 22.3071 21.1627C23.5077 21.4338 24.6801 21.9474 25.5058 22.5626C25.8469 22.8181 26.3062 23.2718 26.5148 23.5612C26.6923 23.8088 26.9206 24.2129 26.8952 24.2364C26.8812 24.2494 26.2358 24.1139 24.9422 23.8245C22.7214 23.3239 22.0563 23.2144 20.8276 23.1284C19.8299 23.0606 18.5871 23.1258 17.4879 23.3004C16.975 23.3813 16.2 23.5403 14.9374 23.8245C13.7087 24.0982 12.9985 24.2494 12.9872 24.239C12.9703 24.2234 13.1084 23.9496 13.2296 23.7567C14.0779 22.4167 15.9802 21.3999 18.3616 21.014C18.556 20.9828 18.8463 20.9489 19.0098 20.9384C19.3959 20.9098 20.3935 20.9306 20.9938 20.9776ZM19.0182 24.9064C19.0295 25.0263 19.038 26.0952 19.038 27.2867C19.038 28.4755 19.0464 29.4922 19.0549 29.5444L19.0718 29.6408L19.9426 29.2472L20.8135 28.8535V26.7731C20.8135 24.8099 20.8163 24.6926 20.8642 24.6926C20.9516 24.6926 21.8083 24.7969 22.1521 24.8517C23.2484 25.0211 26.5289 25.7824 27.2475 26.0327C27.7943 26.223 28.3692 26.7783 28.7186 27.4509C28.8286 27.6647 28.8286 27.6699 28.775 27.7064C28.1465 28.1157 27.7266 28.757 27.5913 29.5131C27.4053 30.5377 27.907 31.6066 28.8342 32.1671C29.1188 32.3392 29.5641 32.5138 29.891 32.5816L30.1221 32.6285L30.1052 33.2047C30.0686 34.3101 29.9305 35.2304 29.643 36.281C29.519 36.7347 29.2513 37.5038 29.1273 37.7619L29.0681 37.887L28.9779 37.8322C28.62 37.6133 28.0225 37.3995 27.4673 37.2926C27.163 37.2326 27.0446 37.2222 26.6331 37.2222C26.0977 37.2222 25.7877 37.2691 25.3311 37.4177C24.48 37.6941 23.5782 38.3328 23.1836 38.935C22.8792 39.4043 22.6115 39.9935 22.5129 40.4185C22.4368 40.7443 22.4452 41.4821 22.527 41.8367C22.6425 42.3373 22.8821 42.8743 23.1695 43.2888C23.2372 43.3853 23.2935 43.4687 23.2935 43.4766C23.2935 43.4974 22.5551 43.7086 22.0929 43.8181C21.5969 43.9354 21.0333 44.0371 20.8924 44.0371H20.8135L20.8078 39.7797L20.7994 35.5198L19.9398 35.9578L19.0802 36.3958L19.0718 40.2151L19.0662 44.0371H18.9534C18.6547 44.0371 17.564 43.7894 16.9243 43.5756C16.3155 43.3749 15.3771 42.9265 14.7542 42.5432C14.4189 42.3373 14.433 42.3633 14.5541 42.1782C14.6979 41.9566 14.7993 41.7324 14.8726 41.49C14.9205 41.3257 14.9318 41.211 14.9318 40.8825C14.9318 40.528 14.9233 40.4471 14.8585 40.2255C14.7176 39.7328 14.4752 39.3417 14.0948 38.9898C13.6918 38.6196 13.2634 38.398 12.7533 38.3015C12.4968 38.252 12.3954 38.2468 12.0064 38.2572C11.6795 38.2676 11.4907 38.2859 11.3188 38.325C11.1892 38.3563 11.0792 38.3771 11.0764 38.3745C11.037 38.3354 10.8031 37.8635 10.71 37.6367C10.2535 36.547 9.95194 35.3242 9.83639 34.1094C9.78848 33.6036 9.78003 32.493 9.8223 32.0028C9.9153 30.9418 10.1492 29.8807 10.5128 28.8926C10.7241 28.3165 10.9017 27.9332 11.1948 27.3988C11.4851 26.8747 11.4541 26.8982 11.5809 27.0911C11.7246 27.3049 12.1981 27.7585 12.4996 27.9671C12.9787 28.3034 13.4607 28.4677 14.137 28.525C14.9994 28.598 15.6448 28.4494 16.3606 28.0062C17.0398 27.5865 17.5048 26.9712 17.7359 26.1813C17.8036 25.9518 17.8092 25.8867 17.8092 25.3783C17.812 24.9038 17.8177 24.823 17.8543 24.8204C17.8769 24.8204 18.1249 24.7917 18.4039 24.7578C18.6829 24.7265 18.9309 24.6978 18.9562 24.6952C18.9929 24.6926 19.0042 24.7343 19.0182 24.9064ZM16.1634 25.3287C16.1634 25.8215 15.8872 26.395 15.5321 26.6427C15.1967 26.8773 14.9008 26.9686 14.4724 26.9686C14.0215 26.9712 13.5903 26.8356 13.3113 26.601C13.114 26.4368 12.8266 25.9962 12.8829 25.944C12.9252 25.9049 15.2164 25.3444 16.0084 25.1801C16.1605 25.1489 16.1634 25.1515 16.1634 25.3287ZM29.6571 29.7634C29.8121 30.3421 29.9333 30.9157 29.9079 30.9418C29.8544 30.9913 29.5359 30.6967 29.4119 30.4829C29.1724 30.0658 29.1921 29.5704 29.4598 29.2732C29.4852 29.2498 29.5049 29.2315 29.5106 29.2341C29.5134 29.2394 29.581 29.4766 29.6571 29.7634ZM27.2785 38.8464C27.6421 38.935 28.2818 39.2401 28.2818 39.3235C28.2818 39.3652 28.0282 39.7276 27.7858 40.0404C26.9911 41.0494 25.9821 41.9879 25.0493 42.5849L24.8154 42.7335L24.6886 42.5849C24.3983 42.2434 24.1813 41.6907 24.1475 41.2084C24.1164 40.7443 24.2658 40.2542 24.5646 39.8423C24.9196 39.3496 25.4636 38.9924 26.0723 38.8516C26.1935 38.8229 26.3203 38.7943 26.3513 38.7864C26.4838 38.7552 27.0615 38.7917 27.2785 38.8464ZM12.2347 39.8162C12.649 39.8684 12.897 40.0039 13.0886 40.2777C13.2549 40.5201 13.3057 40.9242 13.1986 41.1693L13.1591 41.2553L13.0097 41.1015C12.6377 40.7261 11.9219 39.8527 11.9529 39.811C11.9726 39.7823 11.9698 39.7823 12.2347 39.8162Z" fill="#2C2B26"/>
<path d="M24.9703 27.271C24.6603 27.4118 23.0511 28.1469 21.3911 28.903C19.734 29.659 17.9416 30.4777 17.4089 30.7175C16.586 31.0929 16.4366 31.1685 16.3887 31.2415C16.3324 31.325 16.3154 31.4788 16.3493 31.5622C16.3718 31.6117 16.6508 31.8099 17.6428 32.4747C18.0458 32.7458 18.4996 33.0535 18.6518 33.1603L18.9308 33.3533L18.8068 33.4706C18.742 33.5358 17.7725 34.4143 16.6565 35.4207C13.9678 37.8478 13.8523 37.9573 13.8523 38.0642C13.8523 38.2467 14.0129 38.4058 14.1961 38.4058C14.2581 38.4058 14.368 38.3771 14.4526 38.338C14.6132 38.2624 18.88 36.1011 21.9266 34.5525C24.0205 33.4888 23.998 33.5019 23.998 33.2933C23.998 33.2412 23.9895 33.1786 23.9811 33.1551C23.9613 33.1056 23.4766 32.7641 22.3803 32.0315L21.5658 31.484L21.8899 31.1972C23.1751 30.0553 24.6885 28.697 25.3028 28.1339C25.9567 27.5317 26.0271 27.4613 26.0271 27.3831C26.0271 27.2632 25.9285 27.0989 25.8298 27.052C25.6692 26.9764 25.5649 27.0024 24.9703 27.271Z" fill="#ECBE13"/>
<rect x="45.4375" y="14.6785" width="153" height="31.5" rx="15.75" fill="#CACACA"/>
<path d="M155.345 19.8757C154.847 19.9442 154.415 20.0731 154.002 20.2786C153.648 20.4599 153.551 20.5324 153.263 20.8346C153.018 21.0884 152.885 21.2657 152.769 21.5034C152.617 21.8096 152.446 22.281 152.446 22.3978C152.446 22.4421 152.691 22.4502 153.773 22.4502H155.096L155.228 22.3495C155.497 22.1359 155.761 22.0715 156.357 22.0715C156.925 22.0715 157.31 22.14 157.781 22.3253C157.894 22.3696 157.991 22.4018 157.995 22.3978C157.999 22.3938 158.127 21.9023 158.279 21.302C158.462 20.5768 158.54 20.2101 158.513 20.19C158.431 20.1376 157.633 19.9563 157.228 19.8918C156.777 19.8274 155.796 19.8193 155.345 19.8757Z" fill="#00686C"/>
<path d="M159.373 27.5509V34.9077L159.462 34.8835C159.509 34.8715 160.062 34.8594 160.688 34.8594H161.825V27.5268V20.1942H160.599H159.373V27.5509Z" fill="#2C2B26"/>
<path d="M107.711 21.1247C104.929 21.3987 103.104 23.0667 102.403 25.9755C101.831 28.3485 101.905 31.6885 102.578 33.8117C103.322 36.1646 104.82 37.5506 107.065 37.9696C107.622 38.0703 109.077 38.1146 109.665 38.0461C110.07 37.9978 110.801 37.8527 110.879 37.8044C110.91 37.7842 110.922 37.4055 110.914 36.3782L110.902 34.9842L110.669 35.1373C110.163 35.4636 109.638 35.6127 108.84 35.6489C108.011 35.6892 107.209 35.516 106.649 35.1775C106.338 34.9842 105.793 34.4161 105.598 34.0736C104.952 32.9334 104.653 30.7619 104.812 28.3929C105.007 25.5525 105.832 24.094 107.497 23.6549C108.007 23.5219 109.015 23.5018 109.544 23.6146C110.7 23.8603 111.443 24.513 111.914 25.6935C112.331 26.7289 112.537 28.6024 112.44 30.4597C112.358 32.0833 112.148 33.0865 111.72 33.9205L111.545 34.263V35.9108C111.545 36.8173 111.556 37.5586 111.568 37.5586C111.65 37.5586 112.409 37.1074 112.681 36.8898C114.335 35.6086 115.144 33.4209 115.23 30.0246C115.323 26.1004 114.405 23.4857 112.447 22.1199C111.292 21.3141 109.548 20.9474 107.711 21.1247Z" fill="#2C2B26"/>
<path d="M51.73 26.3826V31.3221L51.9752 31.2979C52.1075 31.2858 52.7029 31.2657 53.2983 31.2495L54.3763 31.2213V30.8225V30.4196L56.1976 30.4397C58.4236 30.4639 58.8283 30.5082 59.5016 30.8305C60.2138 31.173 60.5095 31.6806 60.5523 32.6435C60.6263 34.2551 59.9102 35.0206 58.1317 35.222C57.9177 35.2462 56.9837 35.2784 56.0614 35.2905L54.3763 35.3147V33.5903V31.866L53.454 31.8942C52.9442 31.9063 52.3488 31.9304 52.1308 31.9425L51.73 31.9667V34.8635V37.7603H54.7382C57.8399 37.7603 58.4353 37.7401 59.2759 37.5951C61.1516 37.2728 62.4203 36.3743 62.9807 34.9642C63.3465 34.0456 63.4244 32.6838 63.1675 31.6444C62.9262 30.6533 62.2608 29.8314 61.3346 29.3801C60.9687 29.2029 60.4512 29.0377 60.0231 28.9652L59.7351 28.9128L60.132 28.7677C60.7041 28.5582 61.0699 28.3286 61.4396 27.9499C61.7082 27.6759 61.786 27.5631 61.9572 27.2045C62.2063 26.6808 62.3036 26.3141 62.3619 25.7017C62.397 25.3351 62.397 25.1055 62.3619 24.7348C62.3036 24.1063 62.2374 23.8484 62.0156 23.3851C61.5875 22.4786 60.6535 21.8864 59.2447 21.6245C58.3574 21.4593 57.9683 21.4432 54.7771 21.4432H51.73V26.3826ZM57.9177 23.9129C58.6299 24.0378 58.9801 24.1949 59.2875 24.5374C59.5405 24.8154 59.6339 25.1014 59.6573 25.6534C59.7156 27.0393 59.1163 27.7202 57.6414 27.9458C57.3223 27.9942 56.8942 28.0103 55.8006 28.0103H54.3763V25.9112V23.8122L55.9641 23.8323C57.151 23.8444 57.6414 23.8646 57.9177 23.9129Z" fill="#2C2B26"/>
<path d="M152.714 23.1232L152.302 23.1394L152.275 23.506C152.263 23.7074 152.251 24.2151 152.251 24.6341V25.3915H151.434H150.617V26.4189V27.4463H151.434H152.251V32.6033V37.7603H153.477H154.703V32.6033V27.4463H155.987H157.271V26.4189V25.3915H155.983H154.695L154.715 24.3521C154.726 23.784 154.75 23.2683 154.761 23.2038L154.789 23.095L153.96 23.1031C153.5 23.1071 152.94 23.1192 152.714 23.1232Z" fill="#2C2B26"/>
<path d="M83.2717 25.0932C81.0885 25.4437 79.6447 27.2608 79.3061 30.0891C79.1426 31.4387 79.2166 32.8811 79.5046 34.0736C79.9793 36.0398 81.104 37.2807 82.7463 37.6513C83.2756 37.7722 84.3574 37.7722 84.8867 37.6513C85.521 37.5063 86.2021 37.2001 86.7119 36.8334C86.7936 36.773 86.7975 36.7609 86.7858 35.6973L86.7741 34.6176L86.599 34.7424C86.1398 35.0648 85.4432 35.3669 84.9373 35.4677C84.5442 35.5442 83.836 35.4959 83.4974 35.375C82.5673 35.0325 82.0225 34.1301 81.8084 32.5628C81.7345 32.035 81.7461 30.7256 81.824 30.2663C82.112 28.6346 82.8202 27.6516 83.9332 27.3454C84.303 27.2447 84.9373 27.2608 85.4121 27.3857C85.9063 27.5146 86.5445 27.8409 87.0076 28.1995L87.3579 28.4735L87.3812 30.1656C87.4241 33.1188 87.4202 37.5949 87.3735 37.9615C87.284 38.7311 87.1283 39.1138 86.7586 39.4925C86.3305 39.9276 85.8285 40.121 84.8867 40.2218C83.548 40.3587 82.0458 40.0687 80.7732 39.424L80.4541 39.2629L80.0572 40.2862C79.8392 40.8503 79.668 41.3136 79.6758 41.3217C79.7303 41.374 80.4074 41.7004 80.6954 41.8132C82.7696 42.6351 85.8907 42.623 87.6303 41.789C88.4709 41.3901 89.113 40.7133 89.4399 39.8914C89.5761 39.553 89.6112 39.4321 89.7201 38.9285C89.8057 38.5457 89.8057 38.5336 89.8174 31.9665L89.833 25.3914H88.7861H87.7393L87.6575 25.899C87.6147 26.177 87.568 26.4147 87.5564 26.4268C87.5486 26.4348 87.4085 26.3382 87.2489 26.2052C86.5406 25.621 85.7001 25.2262 84.8711 25.0892C84.4392 25.0167 83.7387 25.0167 83.2717 25.0932Z" fill="#2C2B26"/>
<path d="M133.688 25.0732C132.404 25.2343 131.439 25.6977 130.684 26.5115C129.917 27.3374 129.501 28.3245 129.271 29.8635C129.185 30.4276 129.147 32.2164 129.209 32.8691C129.329 34.1382 129.656 35.2018 130.189 36.0479C130.419 36.4186 130.96 36.9907 131.279 37.2082C132.19 37.8206 133.342 38.1228 134.778 38.1228C136.517 38.1228 137.786 37.7038 138.685 36.8295C138.992 36.5314 139.397 35.9955 139.347 35.9512C139.315 35.923 138.872 35.6088 137.93 34.948L137.517 34.662L137.187 34.9923C136.474 35.7095 135.832 35.9391 134.642 35.8948C133.949 35.8706 133.599 35.786 133.139 35.5403C132.236 35.0528 131.754 34.0173 131.696 32.43L131.684 32.1197H133.003H134.322L134.299 31.4227C134.283 31.044 134.272 30.617 134.272 30.4759V30.2261H133.003H131.734L131.758 30.0328C131.851 29.3519 132.096 28.5985 132.365 28.1593C132.649 27.692 132.991 27.422 133.552 27.2166C133.844 27.1118 133.902 27.1078 134.525 27.1078C135.14 27.1078 135.21 27.1158 135.505 27.2166C135.879 27.3455 136.233 27.5792 136.451 27.841C136.821 28.2882 137.058 29.0054 137.101 29.791L137.124 30.2261H136.004H134.883L134.906 30.7378C134.922 31.0239 134.933 31.4469 134.933 31.6886V32.1197L137.241 32.1117L139.545 32.0996L139.541 31.0722C139.537 29.9441 139.494 29.4365 139.343 28.7355C138.915 26.7291 137.767 25.5284 135.918 25.1497C135.439 25.049 134.198 25.0047 133.688 25.0732Z" fill="#2C2B26"/>
<path d="M169.472 25.0692C169.301 25.0893 168.993 25.1457 168.791 25.194C166.534 25.7259 165.288 27.3415 164.934 30.206C164.856 30.8103 164.868 32.5025 164.95 33.127C165.358 36.1889 166.86 37.7924 169.604 38.0865C170.102 38.1389 171.091 38.1188 171.565 38.0422L171.865 37.9939V36.7892C171.865 36.1245 171.857 35.5846 171.85 35.5846C171.842 35.5846 171.741 35.6289 171.628 35.6813C171.316 35.8304 170.877 35.9069 170.367 35.9069C169.775 35.9069 169.402 35.8263 168.962 35.6047C168.382 35.3106 168.005 34.8473 167.74 34.102C167.304 32.8611 167.277 30.6049 167.682 29.2592C168.114 27.833 169.075 27.1722 170.596 27.2568C171.367 27.3012 171.888 27.5107 172.332 27.9659C172.842 28.4897 173.138 29.2673 173.266 30.4598C173.332 31.036 173.297 32.6677 173.212 33.1471C173.087 33.8441 172.838 34.533 172.581 34.8876L172.488 35.0165V36.4105V37.8085L172.597 37.7844C172.807 37.736 173.496 37.3533 173.795 37.1236C175.029 36.1728 175.679 34.662 175.838 32.3736C175.959 30.625 175.687 28.8684 175.115 27.6879C174.43 26.2819 173.282 25.4318 171.651 25.1256C171.239 25.049 169.939 25.0168 169.472 25.0692Z" fill="#2C2B26"/>
<path d="M147.912 25.2463C147.028 25.4276 146.277 25.8869 145.347 26.8055L144.896 27.2527V26.322V25.3913H143.67H142.444V30.1495V34.9116L142.681 34.8834C142.814 34.8713 143.366 34.8592 143.907 34.8592H144.896V32.1639V29.4645L145.285 29.1019C146.021 28.4211 146.581 28.0585 147.27 27.8248C147.569 27.7241 147.651 27.712 148.184 27.712C148.632 27.7079 148.826 27.7281 149.017 27.7805C149.153 27.8207 149.27 27.8449 149.282 27.8369C149.289 27.8248 149.402 27.2889 149.535 26.6443C149.698 25.8224 149.76 25.4558 149.729 25.4235C149.558 25.2463 148.441 25.1375 147.912 25.2463Z" fill="#2C2B26"/>
<path d="M66.1796 30.0529C66.1952 34.1584 66.203 34.7627 66.2614 35.1011C66.5649 36.9182 67.2304 37.7199 68.717 38.0503C68.8571 38.0785 69.2151 38.0986 69.6121 38.0986C70.1997 38.0986 70.3164 38.0865 70.6511 37.9899C71.6746 37.7078 72.5347 37.2082 73.4648 36.3541L73.7761 36.0721L73.7878 36.9141L73.7956 37.7602H75.002H76.2084V35.786V33.8078L76.0255 33.828C75.9204 33.8401 75.3756 33.8602 74.8113 33.8723L73.78 33.9005L73.3908 34.243C72.6631 34.8755 71.8069 35.4154 71.1376 35.6531C70.8535 35.7538 70.764 35.7659 70.3126 35.7659C69.6549 35.7659 69.4681 35.7055 69.1606 35.3832C68.9699 35.1857 68.9271 35.1132 68.8415 34.8352C68.6469 34.2027 68.6469 34.1825 68.6314 29.65L68.6158 25.3915H67.3899H66.1641L66.1796 30.0529Z" fill="#2C2B26"/>
<path d="M73.7957 29.3235V33.2517L74.6829 33.2275C75.1694 33.2154 75.7103 33.1953 75.8894 33.1832L76.2085 33.159V29.2752V25.3913H75.0021H73.7957V29.3235Z" fill="#ECBE13"/>
<path d="M116.876 25.4197C116.876 25.4318 117.818 28.2158 118.97 31.6041L121.059 37.7603L122.223 37.7522L123.391 37.7401L124.223 35.3187L125.052 32.8974L124.383 31.4026C124.009 30.5767 123.698 29.9281 123.686 29.9563C123.675 29.9804 123.356 30.9675 122.982 32.144C122.612 33.3244 122.293 34.2753 122.281 34.2591C122.266 34.247 121.612 32.2447 120.826 29.8112L119.394 25.3915H118.137C117.444 25.3915 116.876 25.4036 116.876 25.4197Z" fill="#2C2B26"/>
<path d="M124.562 27.1922L123.99 28.9931L124.329 29.7385C124.511 30.1494 124.815 30.8263 125.002 31.2413C125.189 31.6562 125.348 31.9826 125.364 31.9665C125.387 31.9383 127.617 25.4558 127.617 25.4155C127.617 25.4034 127.057 25.3913 126.376 25.3913H125.134L124.562 27.1922Z" fill="#00686C"/>
<path d="M177.601 25.48C177.613 25.5324 178.31 28.3164 179.15 31.6684L180.676 37.7601L181.804 37.7521L182.929 37.74L184.338 33.417L185.746 29.0899L186.474 31.3219C186.871 32.5467 187.502 34.4927 187.875 35.645L188.548 37.74L188.961 37.7521L189.377 37.7642V35.6369V33.5096L188.066 29.4485L186.754 25.3914H185.778H184.805L183.443 29.7023C182.695 32.0753 182.069 34.0132 182.057 34.0132C182.045 34.0132 181.61 32.0955 181.092 29.7507C180.571 27.4099 180.135 25.4679 180.127 25.4397C180.111 25.4035 179.819 25.3914 178.843 25.3914H177.578L177.601 25.48Z" fill="#2C2B26"/>
<path d="M191.42 25.4397C191.409 25.4679 191.086 26.9586 190.7 28.7555L190 32.0149V34.8875V37.7642L190.397 37.7521L190.794 37.74L192.323 31.616C193.164 28.2479 193.853 25.4679 193.853 25.4397C193.853 25.4035 193.584 25.3914 192.646 25.3914C191.716 25.3914 191.432 25.4035 191.42 25.4397Z" fill="#00686C"/>
<path d="M92.709 31.5557V32.8047H96.2504H99.7918V31.5557V30.3068H96.2504H92.709V31.5557Z" fill="#2C2B26"/>
<path d="M143.001 35.5323L142.444 35.5484V36.6523V37.7603H143.67H144.896V36.6322V35.5041L144.226 35.5121C143.857 35.5162 143.304 35.5282 143.001 35.5323Z" fill="#00686C"/>
<path d="M159.832 35.5323L159.373 35.5484V36.6523V37.7603H160.599H161.825V36.6322V35.5041L161.058 35.5121C160.634 35.5162 160.081 35.5282 159.832 35.5323Z" fill="#00686C"/>
</svg>
